<svg width="110" height="35" viewBox="0 0 612 200" fill="none" xmlns="http://www.w3.org/2000/svg">
<path d="M0 40C0 17.9086 17.9086 0 40 0H160C182.091 0 200 17.9086 200 40V160C200 182.091 182.091 200 160 200H40C17.9086 200 0 182.091 0 160V40Z" fill="url(#paint0_linear)"/>
<path d="M80.1007 0H60.0459V46.1173H80.1007V0Z" fill="white"/>
<path d="M113.764 141.72H87.2632C72.2221 141.72 60.0459 129.518 60.0459 114.446V95.067H80.1008V114.302C80.1008 118.322 83.2522 121.48 87.2632 121.48H113.764C117.775 121.48 120.927 118.322 120.927 114.302V87.8896C120.927 83.8703 117.775 80.7122 113.764 80.7122H0V60.6156H113.764C128.805 60.6156 140.982 72.8171 140.982 87.8896V114.446C140.982 129.518 128.805 141.72 113.764 141.72Z" fill="white"/>
<path d="M514.797 160.729C513.938 159.88 513.595 159.031 513.595 157.842C513.595 156.654 513.938 155.635 514.797 154.617L547.083 112L517.201 71.9309C516.514 70.9122 515.999 69.8935 515.999 68.705C515.999 67.5165 516.342 66.6676 517.201 65.8186C518.06 64.9697 518.918 64.6301 520.121 64.6301H536.779C538.153 64.6301 539.183 64.9697 539.87 65.4791C540.557 65.9884 541.244 66.8373 542.103 67.8561L563.227 95.7009L584.179 67.8561C584.35 67.6863 584.694 67.1769 585.552 66.1582C586.411 65.1395 587.613 64.6301 589.502 64.6301H605.646C606.848 64.6301 607.707 64.9697 608.565 65.8186C609.252 66.6676 609.767 67.5165 609.767 68.5352C609.767 69.7237 609.424 70.9122 608.565 71.9309L578.34 112.17L610.798 154.617C611.485 155.635 612 156.654 612 157.842C612 159.031 611.657 159.88 610.798 160.729C609.939 161.578 609.08 161.917 607.878 161.917H590.533C588.472 161.917 586.755 160.899 585.381 158.861L562.711 129.318L539.87 158.861C538.496 160.899 536.779 161.917 534.718 161.917H517.888C516.514 161.917 515.484 161.578 514.797 160.729Z" fill="#283049"/>
<path d="M376.995 106.564C376.648 93.1837 372.482 82.6701 365.538 74.436C358.595 66.2018 348.7 62.0848 335.854 62.0848C323.53 62.0848 313.809 66.2018 306.691 74.6075V32.5791C306.691 29.8344 303.914 28.119 301.484 29.1482L281 37.5539V157.807C281 159.007 281.521 160.208 282.389 161.066C283.257 161.924 284.298 162.438 285.687 162.438H300.963C302.352 162.438 303.567 161.924 304.435 161.066C305.303 160.208 305.823 159.179 305.823 157.807V150.773C312.767 159.694 323.009 164.154 336.202 164.154C349.047 164.154 358.942 160.037 365.886 151.974C372.829 143.911 376.475 132.933 376.995 119.381C377.428 115.108 376.995 110.798 376.995 106.564ZM350.262 118.694C349.395 135.334 342.104 143.568 328.564 143.568C321.273 143.568 315.892 141.167 312.246 136.535C308.601 131.903 306.691 126.242 306.518 119.552C306.344 118.008 306.344 115.607 306.344 112.347C306.344 108.916 306.344 106.515 306.518 104.971C306.691 98.6237 308.774 93.3059 312.42 88.8457C316.065 84.3856 321.447 82.1555 328.39 82.1555C342.104 82.1555 349.221 90.3896 350.089 107.029C350.262 108.23 350.262 110.117 350.262 112.69C350.436 115.607 350.436 117.494 350.262 118.694Z" fill="#283049"/>
<path d="M495.621 140.262H427.656L446.007 115.776C448.385 112.694 446.177 108.242 442.269 108.242H418.481L395.713 137.865C395.033 138.892 394.354 139.919 393.674 140.947C393.164 141.974 392.824 143.344 392.824 144.885V158.241C392.824 159.611 393.164 160.81 394.014 161.666C394.863 162.522 395.883 163.036 397.242 163.036H484.407C486.785 163.036 488.994 161.837 490.354 159.953L499.189 147.967C501.568 144.543 499.359 140.262 495.621 140.262Z" fill="#283049"/>
<path d="M394.072 51.1553H462.745L444.203 75.1416C441.799 78.1608 444.031 82.522 447.98 82.522H472.015L495.021 53.5036C495.707 52.4972 496.394 51.4907 497.081 50.4843C497.596 49.4779 497.939 48.136 497.939 46.6264V33.5429C497.939 32.201 497.596 31.0269 496.737 30.1882C495.879 29.3495 494.849 28.8463 493.475 28.8463H405.403C402.999 28.8463 400.768 30.0205 399.394 31.8656L390.467 43.6071C388.063 46.7941 390.295 51.1553 394.072 51.1553Z" fill="#283049"/>
<defs>
<linearGradient id="paint0_linear" x1="187" y1="187" x2="27" y2="27" gradientUnits="userSpaceOnUse">
<stop offset="0.159375" stop-color="#003CDA"/>
<stop offset="1" stop-color="#33DFCC"/>
</linearGradient>
</defs>
</svg>
