<?xml version="1.0" standalone="no"?>
<!DOCTYPE svg PUBLIC "-//W3C//DTD SVG 20010904//EN"
 "http://www.w3.org/TR/2001/REC-SVG-20010904/DTD/svg10.dtd">
<svg version="1.0" xmlns="http://www.w3.org/2000/svg"
 width="240.000000pt" height="240.000000pt" viewBox="0 0 240.000000 240.000000"
 preserveAspectRatio="xMidYMid meet">
<metadata>
Created by potrace 1.11, written by Peter Selinger 2001-2013
</metadata>
<g transform="translate(0.000000,240.000000) scale(0.100000,-0.100000)"
fill="#000000" stroke="none">
<path d="M297 2380 c-137 -43 -244 -160 -276 -301 -16 -67 -14 -979 1 -979 9
0 9 -3 0 -12 -16 -16 -17 -674 -1 -750 31 -149 161 -281 309 -314 54 -12 1599
-11 1592 1 -3 6 1 5 9 -1 28 -21 178 6 238 44 83 52 148 131 182 221 17 45 21
83 23 198 2 81 -1 143 -6 143 -5 0 -6 5 -2 12 12 19 11 937 -1 942 -7 3 -7 5
0 5 11 1 12 422 2 474 -18 89 -70 181 -135 238 -20 18 -66 46 -102 63 l-65 31
-855 2 c-810 2 -858 1 -913 -17z m1474 -737 c13 -16 12 -17 -3 -4 -17 13 -22
21 -14 21 2 0 10 -8 17 -17z m-959 -885 c-9 -9 -15 -9 -24 0 -9 9 -7 12 12 12
19 0 21 -3 12 -12z"/>
</g>
</svg>
